<svg width="1180" height="2080" xmlns="http://www.w3.org/2000/svg" style="font-family: sans-serif;">
<rect width="100%" height="100%" fill="#111" />
<text x="20" y="75" fill="#fff" font-size="24" font-weight="bold">NIGHT1</text><rect x="20" y="90" width="200" height="120" rx="12" fill="#1e293b" stroke="rgba(255,255,255,0.1)" stroke-width="1" /><circle cx="120" cy="140" r="20" fill="#94a3b8" /><text x="30" y="195" fill="#94a3b8" font-size="12" font-family="monospace">night1-1</text><text x="30" y="110" fill="#94a3b8" font-size="10" opacity="0.7">#1e293b / #94a3b8</text><rect x="240" y="90" width="200" height="120" rx="12" fill="#022c22" stroke="rgba(255,255,255,0.1)" stroke-width="1" /><circle cx="340" cy="140" r="20" fill="#6ee7b7" /><text x="250" y="195" fill="#6ee7b7" font-size="12" font-family="monospace">night1-2</text><text x="250" y="110" fill="#6ee7b7" font-size="10" opacity="0.7">#022c22 / #6ee7b7</text><rect x="460" y="90" width="200" height="120" rx="12" fill="#0f0f1b" stroke="rgba(255,255,255,0.1)" stroke-width="1" /><circle cx="560" cy="140" r="20" fill="#533483" /><text x="470" y="195" fill="#533483" font-size="12" font-family="monospace">night1-3</text><text x="470" y="110" fill="#533483" font-size="10" opacity="0.7">#0f0f1b / #533483</text><rect x="680" y="90" width="200" height="120" rx="12" fill="#000000" stroke="rgba(255,255,255,0.1)" stroke-width="1" /><circle cx="780" cy="140" r="20" fill="#55ffff" /><text x="690" y="195" fill="#55ffff" font-size="12" font-family="monospace">night1-4</text><text x="690" y="110" fill="#55ffff" font-size="10" opacity="0.7">#000000 / #55ffff</text><rect x="900" y="90" width="200" height="120" rx="12" fill="#0f380f" stroke="rgba(255,255,255,0.1)" stroke-width="1" /><circle cx="1000" cy="140" r="20" fill="#8bac0f" /><text x="910" y="195" fill="#8bac0f" font-size="12" font-family="monospace">night1-5</text><text x="910" y="110" fill="#8bac0f" font-size="10" opacity="0.7">#0f380f / #8bac0f</text><rect x="1120" y="90" width="200" height="120" rx="12" fill="#0d0221" stroke="rgba(255,255,255,0.1)" stroke-width="1" /><circle cx="1220" cy="140" r="20" fill="#ff00ff" /><text x="1130" y="195" fill="#ff00ff" font-size="12" font-family="monospace">night1-6</text><text x="1130" y="110" fill="#ff00ff" font-size="10" opacity="0.7">#0d0221 / #ff00ff</text><rect x="1340" y="90" width="200" height="120" rx="12" fill="#0a0a0f" stroke="rgba(255,255,255,0.1)" stroke-width="1" /><circle cx="1440" cy="140" r="20" fill="#ff6b6b" /><text x="1350" y="195" fill="#ff6b6b" font-size="12" font-family="monospace">night1-7</text><text x="1350" y="110" fill="#ff6b6b" font-size="10" opacity="0.7">#0a0a0f / #ff6b6b</text><rect x="1560" y="90" width="200" height="120" rx="12" fill="#1a1a2e" stroke="rgba(255,255,255,0.1)" stroke-width="1" /><circle cx="1660" cy="140" r="20" fill="#c9b1ff" /><text x="1570" y="195" fill="#c9b1ff" font-size="12" font-family="monospace">night1-8</text><text x="1570" y="110" fill="#c9b1ff" font-size="10" opacity="0.7">#1a1a2e / #c9b1ff</text><rect x="1780" y="90" width="200" height="120" rx="12" fill="#0f0028" stroke="rgba(255,255,255,0.1)" stroke-width="1" /><circle cx="1880" cy="140" r="20" fill="#ff1493" /><text x="1790" y="195" fill="#ff1493" font-size="12" font-family="monospace">night1-9</text><text x="1790" y="110" fill="#ff1493" font-size="10" opacity="0.7">#0f0028 / #ff1493</text><rect x="2000" y="90" width="200" height="120" rx="12" fill="#1c2833" stroke="rgba(255,255,255,0.1)" stroke-width="1" /><circle cx="2100" cy="140" r="20" fill="#f4d03f" /><text x="2010" y="195" fill="#f4d03f" font-size="12" font-family="monospace">night1-10</text><text x="2010" y="110" fill="#f4d03f" font-size="10" opacity="0.7">#1c2833 / #f4d03f</text><text x="20" y="255" fill="#fff" font-size="24" font-weight="bold">NIGHT2</text><rect x="20" y="270" width="200" height="120" rx="12" fill="#2c3e50" stroke="rgba(255,255,255,0.1)" stroke-width="1" /><circle cx="120" cy="320" r="20" fill="#bdc3c7" /><text x="30" y="375" fill="#bdc3c7" font-size="12" font-family="monospace">night2-1</text><text x="30" y="290" fill="#bdc3c7" font-size="10" opacity="0.7">#2c3e50 / #bdc3c7</text><rect x="240" y="270" width="200" height="120" rx="12" fill="#191919" stroke="rgba(255,255,255,0.1)" stroke-width="1" /><circle cx="340" cy="320" r="20" fill="#cdb4db" /><text x="250" y="375" fill="#cdb4db" font-size="12" font-family="monospace">night2-2</text><text x="250" y="290" fill="#cdb4db" font-size="10" opacity="0.7">#191919 / #cdb4db</text><rect x="460" y="270" width="200" height="120" rx="12" fill="#0b0c10" stroke="rgba(255,255,255,0.1)" stroke-width="1" /><circle cx="560" cy="320" r="20" fill="#66fcf1" /><text x="470" y="375" fill="#66fcf1" font-size="12" font-family="monospace">night2-3</text><text x="470" y="290" fill="#66fcf1" font-size="10" opacity="0.7">#0b0c10 / #66fcf1</text><rect x="680" y="270" width="200" height="120" rx="12" fill="#240046" stroke="rgba(255,255,255,0.1)" stroke-width="1" /><circle cx="780" cy="320" r="20" fill="#9d4edd" /><text x="690" y="375" fill="#9d4edd" font-size="12" font-family="monospace">night2-4</text><text x="690" y="290" fill="#9d4edd" font-size="10" opacity="0.7">#240046 / #9d4edd</text><rect x="900" y="270" width="200" height="120" rx="12" fill="#0c0c0c" stroke="rgba(255,255,255,0.1)" stroke-width="1" /><circle cx="1000" cy="320" r="20" fill="#cccccc" /><text x="910" y="375" fill="#cccccc" font-size="12" font-family="monospace">night2-5</text><text x="910" y="290" fill="#cccccc" font-size="10" opacity="0.7">#0c0c0c / #cccccc</text><rect x="1120" y="270" width="200" height="120" rx="12" fill="#1a0a2e" stroke="rgba(255,255,255,0.1)" stroke-width="1" /><circle cx="1220" cy="320" r="20" fill="#00ffff" /><text x="1130" y="375" fill="#00ffff" font-size="12" font-family="monospace">night2-6</text><text x="1130" y="290" fill="#00ffff" font-size="10" opacity="0.7">#1a0a2e / #00ffff</text><rect x="1340" y="270" width="200" height="120" rx="12" fill="#0d1117" stroke="rgba(255,255,255,0.1)" stroke-width="1" /><circle cx="1440" cy="320" r="20" fill="#58a6ff" /><text x="1350" y="375" fill="#58a6ff" font-size="12" font-family="monospace">night2-7</text><text x="1350" y="290" fill="#58a6ff" font-size="10" opacity="0.7">#0d1117 / #58a6ff</text><rect x="1560" y="270" width="200" height="120" rx="12" fill="#2d2d44" stroke="rgba(255,255,255,0.1)" stroke-width="1" /><circle cx="1660" cy="320" r="20" fill="#a8dadc" /><text x="1570" y="375" fill="#a8dadc" font-size="12" font-family="monospace">night2-8</text><text x="1570" y="290" fill="#a8dadc" font-size="10" opacity="0.7">#2d2d44 / #a8dadc</text><rect x="1780" y="270" width="200" height="120" rx="12" fill="#1a0036" stroke="rgba(255,255,255,0.1)" stroke-width="1" /><circle cx="1880" cy="320" r="20" fill="#00ced1" /><text x="1790" y="375" fill="#00ced1" font-size="12" font-family="monospace">night2-9</text><text x="1790" y="290" fill="#00ced1" font-size="10" opacity="0.7">#1a0036 / #00ced1</text><rect x="2000" y="270" width="200" height="120" rx="12" fill="#2c3e50" stroke="rgba(255,255,255,0.1)" stroke-width="1" /><circle cx="2100" cy="320" r="20" fill="#e74c3c" /><text x="2010" y="375" fill="#e74c3c" font-size="12" font-family="monospace">night2-10</text><text x="2010" y="290" fill="#e74c3c" font-size="10" opacity="0.7">#2c3e50 / #e74c3c</text><text x="20" y="435" fill="#fff" font-size="24" font-weight="bold">NIGHT3</text><rect x="20" y="450" width="200" height="120" rx="12" fill="#1e1b4b" stroke="rgba(255,255,255,0.1)" stroke-width="1" /><circle cx="120" cy="500" r="20" fill="#a78bfa" /><text x="30" y="555" fill="#a78bfa" font-size="12" font-family="monospace">night3-1</text><text x="30" y="470" fill="#a78bfa" font-size="10" opacity="0.7">#1e1b4b / #a78bfa</text><rect x="240" y="450" width="200" height="120" rx="12" fill="#050505" stroke="rgba(255,255,255,0.1)" stroke-width="1" /><circle cx="340" cy="500" r="20" fill="#ff00ff" /><text x="250" y="555" fill="#ff00ff" font-size="12" font-family="monospace">night3-2</text><text x="250" y="470" fill="#ff00ff" font-size="10" opacity="0.7">#050505 / #ff00ff</text><rect x="460" y="450" width="200" height="120" rx="12" fill="#001100" stroke="rgba(255,255,255,0.1)" stroke-width="1" /><circle cx="560" cy="500" r="20" fill="#39ff14" /><text x="470" y="555" fill="#39ff14" font-size="12" font-family="monospace">night3-3</text><text x="470" y="470" fill="#39ff14" font-size="10" opacity="0.7">#001100 / #39ff14</text><rect x="680" y="450" width="200" height="120" rx="12" fill="#10002b" stroke="rgba(255,255,255,0.1)" stroke-width="1" /><circle cx="780" cy="500" r="20" fill="#e0aaff" /><text x="690" y="555" fill="#e0aaff" font-size="12" font-family="monospace">night3-4</text><text x="690" y="470" fill="#e0aaff" font-size="10" opacity="0.7">#10002b / #e0aaff</text><rect x="900" y="450" width="200" height="120" rx="12" fill="#020617" stroke="rgba(255,255,255,0.1)" stroke-width="1" /><circle cx="1000" cy="500" r="20" fill="#38bdf8" /><text x="910" y="555" fill="#38bdf8" font-size="12" font-family="monospace">night3-5</text><text x="910" y="470" fill="#38bdf8" font-size="10" opacity="0.7">#020617 / #38bdf8</text><rect x="1120" y="450" width="200" height="120" rx="12" fill="#16001e" stroke="rgba(255,255,255,0.1)" stroke-width="1" /><circle cx="1220" cy="500" r="20" fill="#ff6ec7" /><text x="1130" y="555" fill="#ff6ec7" font-size="12" font-family="monospace">night3-6</text><text x="1130" y="470" fill="#ff6ec7" font-size="10" opacity="0.7">#16001e / #ff6ec7</text><rect x="1340" y="450" width="200" height="120" rx="12" fill="#0b0b12" stroke="rgba(255,255,255,0.1)" stroke-width="1" /><circle cx="1440" cy="500" r="20" fill="#f78166" /><text x="1350" y="555" fill="#f78166" font-size="12" font-family="monospace">night3-7</text><text x="1350" y="470" fill="#f78166" font-size="10" opacity="0.7">#0b0b12 / #f78166</text><rect x="1560" y="450" width="200" height="120" rx="12" fill="#1e3a5f" stroke="rgba(255,255,255,0.1)" stroke-width="1" /><circle cx="1660" cy="500" r="20" fill="#ffd6ba" /><text x="1570" y="555" fill="#ffd6ba" font-size="12" font-family="monospace">night3-8</text><text x="1570" y="470" fill="#ffd6ba" font-size="10" opacity="0.7">#1e3a5f / #ffd6ba</text><rect x="1780" y="450" width="200" height="120" rx="12" fill="#120024" stroke="rgba(255,255,255,0.1)" stroke-width="1" /><circle cx="1880" cy="500" r="20" fill="#f39c12" /><text x="1790" y="555" fill="#f39c12" font-size="12" font-family="monospace">night3-9</text><text x="1790" y="470" fill="#f39c12" font-size="10" opacity="0.7">#120024 / #f39c12</text><rect x="2000" y="450" width="200" height="120" rx="12" fill="#17202a" stroke="rgba(255,255,255,0.1)" stroke-width="1" /><circle cx="2100" cy="500" r="20" fill="#85c1e9" /><text x="2010" y="555" fill="#85c1e9" font-size="12" font-family="monospace">night3-10</text><text x="2010" y="470" fill="#85c1e9" font-size="10" opacity="0.7">#17202a / #85c1e9</text><text x="20" y="615" fill="#fff" font-size="24" font-weight="bold">DAWN</text><rect x="20" y="630" width="200" height="120" rx="12" fill="#f0f8ff" stroke="rgba(255,255,255,0.1)" stroke-width="1" /><circle cx="120" cy="680" r="20" fill="#457b9d" /><text x="30" y="735" fill="#457b9d" font-size="12" font-family="monospace">dawn-1</text><text x="30" y="650" fill="#457b9d" font-size="10" opacity="0.7">#f0f8ff / #457b9d</text><rect x="240" y="630" width="200" height="120" rx="12" fill="#fdf2f8" stroke="rgba(255,255,255,0.1)" stroke-width="1" /><circle cx="340" cy="680" r="20" fill="#db2777" /><text x="250" y="735" fill="#db2777" font-size="12" font-family="monospace">dawn-2</text><text x="250" y="650" fill="#db2777" font-size="10" opacity="0.7">#fdf2f8 / #db2777</text><rect x="460" y="630" width="200" height="120" rx="12" fill="#faf5ff" stroke="rgba(255,255,255,0.1)" stroke-width="1" /><circle cx="560" cy="680" r="20" fill="#6b21a8" /><text x="470" y="735" fill="#6b21a8" font-size="12" font-family="monospace">dawn-3</text><text x="470" y="650" fill="#6b21a8" font-size="10" opacity="0.7">#faf5ff / #6b21a8</text><rect x="680" y="630" width="200" height="120" rx="12" fill="#e0f2f1" stroke="rgba(255,255,255,0.1)" stroke-width="1" /><circle cx="780" cy="680" r="20" fill="#004d40" /><text x="690" y="735" fill="#004d40" font-size="12" font-family="monospace">dawn-4</text><text x="690" y="650" fill="#004d40" font-size="10" opacity="0.7">#e0f2f1 / #004d40</text><rect x="900" y="630" width="200" height="120" rx="12" fill="#fff1f2" stroke="rgba(255,255,255,0.1)" stroke-width="1" /><circle cx="1000" cy="680" r="20" fill="#fb7185" /><text x="910" y="735" fill="#fb7185" font-size="12" font-family="monospace">dawn-5</text><text x="910" y="650" fill="#fb7185" font-size="10" opacity="0.7">#fff1f2 / #fb7185</text><rect x="1120" y="630" width="200" height="120" rx="12" fill="#2e1065" stroke="rgba(255,255,255,0.1)" stroke-width="1" /><circle cx="1220" cy="680" r="20" fill="#ffd700" /><text x="1130" y="735" fill="#ffd700" font-size="12" font-family="monospace">dawn-6</text><text x="1130" y="650" fill="#ffd700" font-size="10" opacity="0.7">#2e1065 / #ffd700</text><rect x="1340" y="630" width="200" height="120" rx="12" fill="#1a1a25" stroke="rgba(255,255,255,0.1)" stroke-width="1" /><circle cx="1440" cy="680" r="20" fill="#79c0ff" /><text x="1350" y="735" fill="#79c0ff" font-size="12" font-family="monospace">dawn-7</text><text x="1350" y="650" fill="#79c0ff" font-size="10" opacity="0.7">#1a1a25 / #79c0ff</text><rect x="1560" y="630" width="200" height="120" rx="12" fill="#e8d6cf" stroke="rgba(255,255,255,0.1)" stroke-width="1" /><circle cx="1660" cy="680" r="20" fill="#7b2d26" /><text x="1570" y="735" fill="#7b2d26" font-size="12" font-family="monospace">dawn-8</text><text x="1570" y="650" fill="#7b2d26" font-size="10" opacity="0.7">#e8d6cf / #7b2d26</text><rect x="1780" y="630" width="200" height="120" rx="12" fill="#3d1a50" stroke="rgba(255,255,255,0.1)" stroke-width="1" /><circle cx="1880" cy="680" r="20" fill="#ffd700" /><text x="1790" y="735" fill="#ffd700" font-size="12" font-family="monospace">dawn-9</text><text x="1790" y="650" fill="#ffd700" font-size="10" opacity="0.7">#3d1a50 / #ffd700</text><rect x="2000" y="630" width="200" height="120" rx="12" fill="#fad6a5" stroke="rgba(255,255,255,0.1)" stroke-width="1" /><circle cx="2100" cy="680" r="20" fill="#8b4513" /><text x="2010" y="735" fill="#8b4513" font-size="12" font-family="monospace">dawn-10</text><text x="2010" y="650" fill="#8b4513" font-size="10" opacity="0.7">#fad6a5 / #8b4513</text><text x="20" y="795" fill="#fff" font-size="24" font-weight="bold">SUNRISE</text><rect x="20" y="810" width="200" height="120" rx="12" fill="#fff1e6" stroke="rgba(255,255,255,0.1)" stroke-width="1" /><circle cx="120" cy="860" r="20" fill="#e07a5f" /><text x="30" y="915" fill="#e07a5f" font-size="12" font-family="monospace">sunrise-1</text><text x="30" y="830" fill="#e07a5f" font-size="10" opacity="0.7">#fff1e6 / #e07a5f</text><rect x="240" y="810" width="200" height="120" rx="12" fill="#fff7ed" stroke="rgba(255,255,255,0.1)" stroke-width="1" /><circle cx="340" cy="860" r="20" fill="#c2410c" /><text x="250" y="915" fill="#c2410c" font-size="12" font-family="monospace">sunrise-2</text><text x="250" y="830" fill="#c2410c" font-size="10" opacity="0.7">#fff7ed / #c2410c</text><rect x="460" y="810" width="200" height="120" rx="12" fill="#fefce8" stroke="rgba(255,255,255,0.1)" stroke-width="1" /><circle cx="560" cy="860" r="20" fill="#854d0e" /><text x="470" y="915" fill="#854d0e" font-size="12" font-family="monospace">sunrise-3</text><text x="470" y="830" fill="#854d0e" font-size="10" opacity="0.7">#fefce8 / #854d0e</text><rect x="680" y="810" width="200" height="120" rx="12" fill="#eff6ff" stroke="rgba(255,255,255,0.1)" stroke-width="1" /><circle cx="780" cy="860" r="20" fill="#1e40af" /><text x="690" y="915" fill="#1e40af" font-size="12" font-family="monospace">sunrise-4</text><text x="690" y="830" fill="#1e40af" font-size="10" opacity="0.7">#eff6ff / #1e40af</text><rect x="900" y="810" width="200" height="120" rx="12" fill="#ffcc00" stroke="rgba(255,255,255,0.1)" stroke-width="1" /><circle cx="1000" cy="860" r="20" fill="#cc0000" /><text x="910" y="915" fill="#cc0000" font-size="12" font-family="monospace">sunrise-5</text><text x="910" y="830" fill="#cc0000" font-size="10" opacity="0.7">#ffcc00 / #cc0000</text><rect x="1120" y="810" width="200" height="120" rx="12" fill="#ff6b35" stroke="rgba(255,255,255,0.1)" stroke-width="1" /><circle cx="1220" cy="860" r="20" fill="#1a0533" /><text x="1130" y="915" fill="#1a0533" font-size="12" font-family="monospace">sunrise-6</text><text x="1130" y="830" fill="#1a0533" font-size="10" opacity="0.7">#ff6b35 / #1a0533</text><rect x="1340" y="810" width="200" height="120" rx="12" fill="#2d2d3d" stroke="rgba(255,255,255,0.1)" stroke-width="1" /><circle cx="1440" cy="860" r="20" fill="#ffa657" /><text x="1350" y="915" fill="#ffa657" font-size="12" font-family="monospace">sunrise-7</text><text x="1350" y="830" fill="#ffa657" font-size="10" opacity="0.7">#2d2d3d / #ffa657</text><rect x="1560" y="810" width="200" height="120" rx="12" fill="#ffeaa7" stroke="rgba(255,255,255,0.1)" stroke-width="1" /><circle cx="1660" cy="860" r="20" fill="#d35400" /><text x="1570" y="915" fill="#d35400" font-size="12" font-family="monospace">sunrise-8</text><text x="1570" y="830" fill="#d35400" font-size="10" opacity="0.7">#ffeaa7 / #d35400</text><rect x="1780" y="810" width="200" height="120" rx="12" fill="#ff4500" stroke="rgba(255,255,255,0.1)" stroke-width="1" /><circle cx="1880" cy="860" r="20" fill="#ffffff" /><text x="1790" y="915" fill="#ffffff" font-size="12" font-family="monospace">sunrise-9</text><text x="1790" y="830" fill="#ffffff" font-size="10" opacity="0.7">#ff4500 / #ffffff</text><rect x="2000" y="810" width="200" height="120" rx="12" fill="#f8b500" stroke="rgba(255,255,255,0.1)" stroke-width="1" /><circle cx="2100" cy="860" r="20" fill="#a52a2a" /><text x="2010" y="915" fill="#a52a2a" font-size="12" font-family="monospace">sunrise-10</text><text x="2010" y="830" fill="#a52a2a" font-size="10" opacity="0.7">#f8b500 / #a52a2a</text><text x="20" y="975" fill="#fff" font-size="24" font-weight="bold">MORNING</text><rect x="20" y="990" width="200" height="120" rx="12" fill="#ecfdf5" stroke="rgba(255,255,255,0.1)" stroke-width="1" /><circle cx="120" cy="1040" r="20" fill="#047857" /><text x="30" y="1095" fill="#047857" font-size="12" font-family="monospace">morning-1</text><text x="30" y="1010" fill="#047857" font-size="10" opacity="0.7">#ecfdf5 / #047857</text><rect x="240" y="990" width="200" height="120" rx="12" fill="#e0f2fe" stroke="rgba(255,255,255,0.1)" stroke-width="1" /><circle cx="340" cy="1040" r="20" fill="#0284c7" /><text x="250" y="1095" fill="#0284c7" font-size="12" font-family="monospace">morning-2</text><text x="250" y="1010" fill="#0284c7" font-size="10" opacity="0.7">#e0f2fe / #0284c7</text><rect x="460" y="990" width="200" height="120" rx="12" fill="#fafafa" stroke="rgba(255,255,255,0.1)" stroke-width="1" /><circle cx="560" cy="1040" r="20" fill="#525252" /><text x="470" y="1095" fill="#525252" font-size="12" font-family="monospace">morning-3</text><text x="470" y="1010" fill="#525252" font-size="10" opacity="0.7">#fafafa / #525252</text><rect x="680" y="990" width="200" height="120" rx="12" fill="#fffbeb" stroke="rgba(255,255,255,0.1)" stroke-width="1" /><circle cx="780" cy="1040" r="20" fill="#b45309" /><text x="690" y="1095" fill="#b45309" font-size="12" font-family="monospace">morning-4</text><text x="690" y="1010" fill="#b45309" font-size="10" opacity="0.7">#fffbeb / #b45309</text><rect x="900" y="990" width="200" height="120" rx="12" fill="#9bbc0f" stroke="rgba(255,255,255,0.1)" stroke-width="1" /><circle cx="1000" cy="1040" r="20" fill="#306230" /><text x="910" y="1095" fill="#306230" font-size="12" font-family="monospace">morning-5</text><text x="910" y="1010" fill="#306230" font-size="10" opacity="0.7">#9bbc0f / #306230</text><rect x="1120" y="990" width="200" height="120" rx="12" fill="#ff9500" stroke="rgba(255,255,255,0.1)" stroke-width="1" /><circle cx="1220" cy="1040" r="20" fill="#2a0845" /><text x="1130" y="1095" fill="#2a0845" font-size="12" font-family="monospace">morning-6</text><text x="1130" y="1010" fill="#2a0845" font-size="10" opacity="0.7">#ff9500 / #2a0845</text><rect x="1340" y="990" width="200" height="120" rx="12" fill="#3d3d4d" stroke="rgba(255,255,255,0.1)" stroke-width="1" /><circle cx="1440" cy="1040" r="20" fill="#adbac7" /><text x="1350" y="1095" fill="#adbac7" font-size="12" font-family="monospace">morning-7</text><text x="1350" y="1010" fill="#adbac7" font-size="10" opacity="0.7">#3d3d4d / #adbac7</text><rect x="1560" y="990" width="200" height="120" rx="12" fill="#dfe6e9" stroke="rgba(255,255,255,0.1)" stroke-width="1" /><circle cx="1660" cy="1040" r="20" fill="#2d3436" /><text x="1570" y="1095" fill="#2d3436" font-size="12" font-family="monospace">morning-8</text><text x="1570" y="1010" fill="#2d3436" font-size="10" opacity="0.7">#dfe6e9 / #2d3436</text><rect x="1780" y="990" width="200" height="120" rx="12" fill="#ff6b35" stroke="rgba(255,255,255,0.1)" stroke-width="1" /><circle cx="1880" cy="1040" r="20" fill="#0d0019" /><text x="1790" y="1095" fill="#0d0019" font-size="12" font-family="monospace">morning-9</text><text x="1790" y="1010" fill="#0d0019" font-size="10" opacity="0.7">#ff6b35 / #0d0019</text><rect x="2000" y="990" width="200" height="120" rx="12" fill="#fef3c7" stroke="rgba(255,255,255,0.1)" stroke-width="1" /><circle cx="2100" cy="1040" r="20" fill="#d35400" /><text x="2010" y="1095" fill="#d35400" font-size="12" font-family="monospace">morning-10</text><text x="2010" y="1010" fill="#d35400" font-size="10" opacity="0.7">#fef3c7 / #d35400</text><text x="20" y="1155" fill="#fff" font-size="24" font-weight="bold">NOON</text><rect x="20" y="1170" width="200" height="120" rx="12" fill="#f5f5f4" stroke="rgba(255,255,255,0.1)" stroke-width="1" /><circle cx="120" cy="1220" r="20" fill="#1c1917" /><text x="30" y="1275" fill="#1c1917" font-size="12" font-family="monospace">noon-1</text><text x="30" y="1190" fill="#1c1917" font-size="10" opacity="0.7">#f5f5f4 / #1c1917</text><rect x="240" y="1170" width="200" height="120" rx="12" fill="#f0f9ff" stroke="rgba(255,255,255,0.1)" stroke-width="1" /><circle cx="340" cy="1220" r="20" fill="#0c4a6e" /><text x="250" y="1275" fill="#0c4a6e" font-size="12" font-family="monospace">noon-2</text><text x="250" y="1190" fill="#0c4a6e" font-size="10" opacity="0.7">#f0f9ff / #0c4a6e</text><rect x="460" y="1170" width="200" height="120" rx="12" fill="#f0fdfa" stroke="rgba(255,255,255,0.1)" stroke-width="1" /><circle cx="560" cy="1220" r="20" fill="#0d9488" /><text x="470" y="1275" fill="#0d9488" font-size="12" font-family="monospace">noon-3</text><text x="470" y="1190" fill="#0d9488" font-size="10" opacity="0.7">#f0fdfa / #0d9488</text><rect x="680" y="1170" width="200" height="120" rx="12" fill="#f8fafc" stroke="rgba(255,255,255,0.1)" stroke-width="1" /><circle cx="780" cy="1220" r="20" fill="#334155" /><text x="690" y="1275" fill="#334155" font-size="12" font-family="monospace">noon-4</text><text x="690" y="1190" fill="#334155" font-size="10" opacity="0.7">#f8fafc / #334155</text><rect x="900" y="1170" width="200" height="120" rx="12" fill="#eff6ff" stroke="rgba(255,255,255,0.1)" stroke-width="1" /><circle cx="1000" cy="1220" r="20" fill="#3b82f6" /><text x="910" y="1275" fill="#3b82f6" font-size="12" font-family="monospace">noon-5</text><text x="910" y="1190" fill="#3b82f6" font-size="10" opacity="0.7">#eff6ff / #3b82f6</text><rect x="1120" y="1170" width="200" height="120" rx="12" fill="#ffecd2" stroke="rgba(255,255,255,0.1)" stroke-width="1" /><circle cx="1220" cy="1220" r="20" fill="#be3455" /><text x="1130" y="1275" fill="#be3455" font-size="12" font-family="monospace">noon-6</text><text x="1130" y="1190" fill="#be3455" font-size="10" opacity="0.7">#ffecd2 / #be3455</text><rect x="1340" y="1170" width="200" height="120" rx="12" fill="#4d4d5d" stroke="rgba(255,255,255,0.1)" stroke-width="1" /><circle cx="1440" cy="1220" r="20" fill="#f0f6fc" /><text x="1350" y="1275" fill="#f0f6fc" font-size="12" font-family="monospace">noon-7</text><text x="1350" y="1190" fill="#f0f6fc" font-size="10" opacity="0.7">#4d4d5d / #f0f6fc</text><rect x="1560" y="1170" width="200" height="120" rx="12" fill="#f5f6fa" stroke="rgba(255,255,255,0.1)" stroke-width="1" /><circle cx="1660" cy="1220" r="20" fill="#353b48" /><text x="1570" y="1275" fill="#353b48" font-size="12" font-family="monospace">noon-8</text><text x="1570" y="1190" fill="#353b48" font-size="10" opacity="0.7">#f5f6fa / #353b48</text><rect x="1780" y="1170" width="200" height="120" rx="12" fill="#ff8c42" stroke="rgba(255,255,255,0.1)" stroke-width="1" /><circle cx="1880" cy="1220" r="20" fill="#1a0033" /><text x="1790" y="1275" fill="#1a0033" font-size="12" font-family="monospace">noon-9</text><text x="1790" y="1190" fill="#1a0033" font-size="10" opacity="0.7">#ff8c42 / #1a0033</text><rect x="2000" y="1170" width="200" height="120" rx="12" fill="#fff9e6" stroke="rgba(255,255,255,0.1)" stroke-width="1" /><circle cx="2100" cy="1220" r="20" fill="#5d4037" /><text x="2010" y="1275" fill="#5d4037" font-size="12" font-family="monospace">noon-10</text><text x="2010" y="1190" fill="#5d4037" font-size="10" opacity="0.7">#fff9e6 / #5d4037</text><text x="20" y="1335" fill="#fff" font-size="24" font-weight="bold">AFTERNOON</text><rect x="20" y="1350" width="200" height="120" rx="12" fill="#f5f5f4" stroke="rgba(255,255,255,0.1)" stroke-width="1" /><circle cx="120" cy="1400" r="20" fill="#57534e" /><text x="30" y="1455" fill="#57534e" font-size="12" font-family="monospace">afternoon-1</text><text x="30" y="1370" fill="#57534e" font-size="10" opacity="0.7">#f5f5f4 / #57534e</text><rect x="240" y="1350" width="200" height="120" rx="12" fill="#ecfccb" stroke="rgba(255,255,255,0.1)" stroke-width="1" /><circle cx="340" cy="1400" r="20" fill="#3f6212" /><text x="250" y="1455" fill="#3f6212" font-size="12" font-family="monospace">afternoon-2</text><text x="250" y="1370" fill="#3f6212" font-size="10" opacity="0.7">#ecfccb / #3f6212</text><rect x="460" y="1350" width="200" height="120" rx="12" fill="#f0fdf4" stroke="rgba(255,255,255,0.1)" stroke-width="1" /><circle cx="560" cy="1400" r="20" fill="#16a34a" /><text x="470" y="1455" fill="#16a34a" font-size="12" font-family="monospace">afternoon-3</text><text x="470" y="1370" fill="#16a34a" font-size="10" opacity="0.7">#f0fdf4 / #16a34a</text><rect x="680" y="1350" width="200" height="120" rx="12" fill="#f5f5f5" stroke="rgba(255,255,255,0.1)" stroke-width="1" /><circle cx="780" cy="1400" r="20" fill="#3e2723" /><text x="690" y="1455" fill="#3e2723" font-size="12" font-family="monospace">afternoon-4</text><text x="690" y="1370" fill="#3e2723" font-size="10" opacity="0.7">#f5f5f5 / #3e2723</text><rect x="900" y="1350" width="200" height="120" rx="12" fill="#dcfce7" stroke="rgba(255,255,255,0.1)" stroke-width="1" /><circle cx="1000" cy="1400" r="20" fill="#166534" /><text x="910" y="1455" fill="#166534" font-size="12" font-family="monospace">afternoon-5</text><text x="910" y="1370" fill="#166534" font-size="10" opacity="0.7">#dcfce7 / #166534</text><rect x="1120" y="1350" width="200" height="120" rx="12" fill="#ffb7b2" stroke="rgba(255,255,255,0.1)" stroke-width="1" /><circle cx="1220" cy="1400" r="20" fill="#6b2d5c" /><text x="1130" y="1455" fill="#6b2d5c" font-size="12" font-family="monospace">afternoon-6</text><text x="1130" y="1370" fill="#6b2d5c" font-size="10" opacity="0.7">#ffb7b2 / #6b2d5c</text><rect x="1340" y="1350" width="200" height="120" rx="12" fill="#3a3a4a" stroke="rgba(255,255,255,0.1)" stroke-width="1" /><circle cx="1440" cy="1400" r="20" fill="#d4a373" /><text x="1350" y="1455" fill="#d4a373" font-size="12" font-family="monospace">afternoon-7</text><text x="1350" y="1370" fill="#d4a373" font-size="10" opacity="0.7">#3a3a4a / #d4a373</text><rect x="1560" y="1350" width="200" height="120" rx="12" fill="#ffefd5" stroke="rgba(255,255,255,0.1)" stroke-width="1" /><circle cx="1660" cy="1400" r="20" fill="#6b4423" /><text x="1570" y="1455" fill="#6b4423" font-size="12" font-family="monospace">afternoon-8</text><text x="1570" y="1370" fill="#6b4423" font-size="10" opacity="0.7">#ffefd5 / #6b4423</text><rect x="1780" y="1350" width="200" height="120" rx="12" fill="#e85d04" stroke="rgba(255,255,255,0.1)" stroke-width="1" /><circle cx="1880" cy="1400" r="20" fill="#15002b" /><text x="1790" y="1455" fill="#15002b" font-size="12" font-family="monospace">afternoon-9</text><text x="1790" y="1370" fill="#15002b" font-size="10" opacity="0.7">#e85d04 / #15002b</text><rect x="2000" y="1350" width="200" height="120" rx="12" fill="#e6d3b3" stroke="rgba(255,255,255,0.1)" stroke-width="1" /><circle cx="2100" cy="1400" r="20" fill="#6d4c41" /><text x="2010" y="1455" fill="#6d4c41" font-size="12" font-family="monospace">afternoon-10</text><text x="2010" y="1370" fill="#6d4c41" font-size="10" opacity="0.7">#e6d3b3 / #6d4c41</text><text x="20" y="1515" fill="#fff" font-size="24" font-weight="bold">GOLDENHOUR</text><rect x="20" y="1530" width="200" height="120" rx="12" fill="#f59e0b" stroke="rgba(255,255,255,0.1)" stroke-width="1" /><circle cx="120" cy="1580" r="20" fill="#451a03" /><text x="30" y="1635" fill="#451a03" font-size="12" font-family="monospace">goldenHour-1</text><text x="30" y="1550" fill="#451a03" font-size="10" opacity="0.7">#f59e0b / #451a03</text><rect x="240" y="1530" width="200" height="120" rx="12" fill="#4c1d95" stroke="rgba(255,255,255,0.1)" stroke-width="1" /><circle cx="340" cy="1580" r="20" fill="#fbbf24" /><text x="250" y="1635" fill="#fbbf24" font-size="12" font-family="monospace">goldenHour-2</text><text x="250" y="1550" fill="#fbbf24" font-size="10" opacity="0.7">#4c1d95 / #fbbf24</text><rect x="460" y="1530" width="200" height="120" rx="12" fill="#d97706" stroke="rgba(255,255,255,0.1)" stroke-width="1" /><circle cx="560" cy="1580" r="20" fill="#fff1f2" /><text x="470" y="1635" fill="#fff1f2" font-size="12" font-family="monospace">goldenHour-3</text><text x="470" y="1550" fill="#fff1f2" font-size="10" opacity="0.7">#d97706 / #fff1f2</text><rect x="680" y="1530" width="200" height="120" rx="12" fill="#7c2d12" stroke="rgba(255,255,255,0.1)" stroke-width="1" /><circle cx="780" cy="1580" r="20" fill="#ffedd5" /><text x="690" y="1635" fill="#ffedd5" font-size="12" font-family="monospace">goldenHour-4</text><text x="690" y="1550" fill="#ffedd5" font-size="10" opacity="0.7">#7c2d12 / #ffedd5</text><rect x="900" y="1530" width="200" height="120" rx="12" fill="#581c87" stroke="rgba(255,255,255,0.1)" stroke-width="1" /><circle cx="1000" cy="1580" r="20" fill="#e9d5ff" /><text x="910" y="1635" fill="#e9d5ff" font-size="12" font-family="monospace">goldenHour-5</text><text x="910" y="1550" fill="#e9d5ff" font-size="10" opacity="0.7">#581c87 / #e9d5ff</text><rect x="1120" y="1530" width="200" height="120" rx="12" fill="#ff0080" stroke="rgba(255,255,255,0.1)" stroke-width="1" /><circle cx="1220" cy="1580" r="20" fill="#ffffff" /><text x="1130" y="1635" fill="#ffffff" font-size="12" font-family="monospace">goldenHour-6</text><text x="1130" y="1550" fill="#ffffff" font-size="10" opacity="0.7">#ff0080 / #ffffff</text><rect x="1340" y="1530" width="200" height="120" rx="12" fill="#2a1f3d" stroke="rgba(255,255,255,0.1)" stroke-width="1" /><circle cx="1440" cy="1580" r="20" fill="#f72585" /><text x="1350" y="1635" fill="#f72585" font-size="12" font-family="monospace">goldenHour-7</text><text x="1350" y="1550" fill="#f72585" font-size="10" opacity="0.7">#2a1f3d / #f72585</text><rect x="1560" y="1530" width="200" height="120" rx="12" fill="#fab1a0" stroke="rgba(255,255,255,0.1)" stroke-width="1" /><circle cx="1660" cy="1580" r="20" fill="#6c3461" /><text x="1570" y="1635" fill="#6c3461" font-size="12" font-family="monospace">goldenHour-8</text><text x="1570" y="1550" fill="#6c3461" font-size="10" opacity="0.7">#fab1a0 / #6c3461</text><rect x="1780" y="1530" width="200" height="120" rx="12" fill="#d00070" stroke="rgba(255,255,255,0.1)" stroke-width="1" /><circle cx="1880" cy="1580" r="20" fill="#8a185bff" /><text x="1790" y="1635" fill="#8a185bff" font-size="12" font-family="monospace">goldenHour-9</text><text x="1790" y="1550" fill="#8a185bff" font-size="10" opacity="0.7">#d00070 / #8a185bff</text><rect x="2000" y="1530" width="200" height="120" rx="12" fill="#f4a261" stroke="rgba(255,255,255,0.1)" stroke-width="1" /><circle cx="2100" cy="1580" r="20" fill="#264653" /><text x="2010" y="1635" fill="#264653" font-size="12" font-family="monospace">goldenHour-10</text><text x="2010" y="1550" fill="#264653" font-size="10" opacity="0.7">#f4a261 / #264653</text><text x="20" y="1695" fill="#fff" font-size="24" font-weight="bold">SUNSET</text><rect x="20" y="1710" width="200" height="120" rx="12" fill="#4c1d95" stroke="rgba(255,255,255,0.1)" stroke-width="1" /><circle cx="120" cy="1760" r="20" fill="#22d3ee" /><text x="30" y="1815" fill="#22d3ee" font-size="12" font-family="monospace">sunset-1</text><text x="30" y="1730" fill="#22d3ee" font-size="10" opacity="0.7">#4c1d95 / #22d3ee</text><rect x="240" y="1710" width="200" height="120" rx="12" fill="#3a0ca3" stroke="rgba(255,255,255,0.1)" stroke-width="1" /><circle cx="340" cy="1760" r="20" fill="#f72585" /><text x="250" y="1815" fill="#f72585" font-size="12" font-family="monospace">sunset-2</text><text x="250" y="1730" fill="#f72585" font-size="10" opacity="0.7">#3a0ca3 / #f72585</text><rect x="460" y="1710" width="200" height="120" rx="12" fill="#fcd34d" stroke="rgba(255,255,255,0.1)" stroke-width="1" /><circle cx="560" cy="1760" r="20" fill="#be185d" /><text x="470" y="1815" fill="#be185d" font-size="12" font-family="monospace">sunset-3</text><text x="470" y="1730" fill="#be185d" font-size="10" opacity="0.7">#fcd34d / #be185d</text><rect x="680" y="1710" width="200" height="120" rx="12" fill="#ffe4e6" stroke="rgba(255,255,255,0.1)" stroke-width="1" /><circle cx="780" cy="1760" r="20" fill="#e11d48" /><text x="690" y="1815" fill="#e11d48" font-size="12" font-family="monospace">sunset-4</text><text x="690" y="1730" fill="#e11d48" font-size="10" opacity="0.7">#ffe4e6 / #e11d48</text><rect x="900" y="1710" width="200" height="120" rx="12" fill="#fff1f2" stroke="rgba(255,255,255,0.1)" stroke-width="1" /><circle cx="1000" cy="1760" r="20" fill="#be185d" /><text x="910" y="1815" fill="#be185d" font-size="12" font-family="monospace">sunset-5</text><text x="910" y="1730" fill="#be185d" font-size="10" opacity="0.7">#fff1f2 / #be185d</text><rect x="1120" y="1710" width="200" height="120" rx="12" fill="#9d4edd" stroke="rgba(255,255,255,0.1)" stroke-width="1" /><circle cx="1220" cy="1760" r="20" fill="#00ffff" /><text x="1130" y="1815" fill="#00ffff" font-size="12" font-family="monospace">sunset-6</text><text x="1130" y="1730" fill="#00ffff" font-size="10" opacity="0.7">#9d4edd / #00ffff</text><rect x="1340" y="1710" width="200" height="120" rx="12" fill="#1a0a24" stroke="rgba(255,255,255,0.1)" stroke-width="1" /><circle cx="1440" cy="1760" r="20" fill="#7209b7" /><text x="1350" y="1815" fill="#7209b7" font-size="12" font-family="monospace">sunset-7</text><text x="1350" y="1730" fill="#7209b7" font-size="10" opacity="0.7">#1a0a24 / #7209b7</text><rect x="1560" y="1710" width="200" height="120" rx="12" fill="#fdcb6e" stroke="rgba(255,255,255,0.1)" stroke-width="1" /><circle cx="1660" cy="1760" r="20" fill="#6c5ce7" /><text x="1570" y="1815" fill="#6c5ce7" font-size="12" font-family="monospace">sunset-8</text><text x="1570" y="1730" fill="#6c5ce7" font-size="10" opacity="0.7">#fdcb6e / #6c5ce7</text><rect x="1780" y="1710" width="200" height="120" rx="12" fill="#7b2cbf" stroke="rgba(255,255,255,0.1)" stroke-width="1" /><circle cx="1880" cy="1760" r="20" fill="#580550ff" /><text x="1790" y="1815" fill="#580550ff" font-size="12" font-family="monospace">sunset-9</text><text x="1790" y="1730" fill="#580550ff" font-size="10" opacity="0.7">#7b2cbf / #580550ff</text><rect x="2000" y="1710" width="200" height="120" rx="12" fill="#e76f51" stroke="rgba(255,255,255,0.1)" stroke-width="1" /><circle cx="2100" cy="1760" r="20" fill="#f6e5b8" /><text x="2010" y="1815" fill="#f6e5b8" font-size="12" font-family="monospace">sunset-10</text><text x="2010" y="1730" fill="#f6e5b8" font-size="10" opacity="0.7">#e76f51 / #f6e5b8</text><text x="20" y="1875" fill="#fff" font-size="24" font-weight="bold">DUSK</text><rect x="20" y="1890" width="200" height="120" rx="12" fill="#312e81" stroke="rgba(255,255,255,0.1)" stroke-width="1" /><circle cx="120" cy="1940" r="20" fill="#e0e7ff" /><text x="30" y="1995" fill="#e0e7ff" font-size="12" font-family="monospace">dusk-1</text><text x="30" y="1910" fill="#e0e7ff" font-size="10" opacity="0.7">#312e81 / #e0e7ff</text><rect x="240" y="1890" width="200" height="120" rx="12" fill="#0f172a" stroke="rgba(255,255,255,0.1)" stroke-width="1" /><circle cx="340" cy="1940" r="20" fill="#38bdf8" /><text x="250" y="1995" fill="#38bdf8" font-size="12" font-family="monospace">dusk-2</text><text x="250" y="1910" fill="#38bdf8" font-size="10" opacity="0.7">#0f172a / #38bdf8</text><rect x="460" y="1890" width="200" height="120" rx="12" fill="#581c87" stroke="rgba(255,255,255,0.1)" stroke-width="1" /><circle cx="560" cy="1940" r="20" fill="#f3e8ff" /><text x="470" y="1995" fill="#f3e8ff" font-size="12" font-family="monospace">dusk-3</text><text x="470" y="1910" fill="#f3e8ff" font-size="10" opacity="0.7">#581c87 / #f3e8ff</text><rect x="680" y="1890" width="200" height="120" rx="12" fill="#000000" stroke="rgba(255,255,255,0.1)" stroke-width="1" /><circle cx="780" cy="1940" r="20" fill="#00FFFF" /><text x="690" y="1995" fill="#00FFFF" font-size="12" font-family="monospace">dusk-4</text><text x="690" y="1910" fill="#00FFFF" font-size="10" opacity="0.7">#000000 / #00FFFF</text><rect x="900" y="1890" width="200" height="120" rx="12" fill="#1e1b4b" stroke="rgba(255,255,255,0.1)" stroke-width="1" /><circle cx="1000" cy="1940" r="20" fill="#c084fc" /><text x="910" y="1995" fill="#c084fc" font-size="12" font-family="monospace">dusk-5</text><text x="910" y="1910" fill="#c084fc" font-size="10" opacity="0.7">#1e1b4b / #c084fc</text><rect x="1120" y="1890" width="200" height="120" rx="12" fill="#3c096c" stroke="rgba(255,255,255,0.1)" stroke-width="1" /><circle cx="1220" cy="1940" r="20" fill="#ff00ff" /><text x="1130" y="1995" fill="#ff00ff" font-size="12" font-family="monospace">dusk-6</text><text x="1130" y="1910" fill="#ff00ff" font-size="10" opacity="0.7">#3c096c / #ff00ff</text><rect x="1340" y="1890" width="200" height="120" rx="12" fill="#0d0d17" stroke="rgba(255,255,255,0.1)" stroke-width="1" /><circle cx="1440" cy="1940" r="20" fill="#4cc9f0" /><text x="1350" y="1995" fill="#4cc9f0" font-size="12" font-family="monospace">dusk-7</text><text x="1350" y="1910" fill="#4cc9f0" font-size="10" opacity="0.7">#0d0d17 / #4cc9f0</text><rect x="1560" y="1890" width="200" height="120" rx="12" fill="#6c5ce7" stroke="rgba(255,255,255,0.1)" stroke-width="1" /><circle cx="1660" cy="1940" r="20" fill="#ffeaa7" /><text x="1570" y="1995" fill="#ffeaa7" font-size="12" font-family="monospace">dusk-8</text><text x="1570" y="1910" fill="#ffeaa7" font-size="10" opacity="0.7">#6c5ce7 / #ffeaa7</text><rect x="1780" y="1890" width="200" height="120" rx="12" fill="#2d0068" stroke="rgba(255,255,255,0.1)" stroke-width="1" /><circle cx="1880" cy="1940" r="20" fill="#ff00ff" /><text x="1790" y="1995" fill="#ff00ff" font-size="12" font-family="monospace">dusk-9</text><text x="1790" y="1910" fill="#ff00ff" font-size="10" opacity="0.7">#2d0068 / #ff00ff</text><rect x="2000" y="1890" width="200" height="120" rx="12" fill="#264653" stroke="rgba(255,255,255,0.1)" stroke-width="1" /><circle cx="2100" cy="1940" r="20" fill="#e9c46a" /><text x="2010" y="1995" fill="#e9c46a" font-size="12" font-family="monospace">dusk-10</text><text x="2010" y="1910" fill="#e9c46a" font-size="10" opacity="0.7">#264653 / #e9c46a</text></svg>